<svg width="23" height="30" viewBox="0 0 23 30" fill="none" xmlns="http://www.w3.org/2000/svg">
<path d="M22.2682 10.2271C22.1043 10.3621 19.2109 12.0931 19.2109 15.9421C19.2109 20.3941 22.8926 21.9691 23.0028 22.0081C22.9859 22.1041 22.4179 24.1651 21.0617 26.2651C19.8523 28.1131 18.5893 29.9581 16.6679 29.9581C14.7466 29.9581 14.2521 28.7731 12.034 28.7731C9.87248 28.7731 9.10393 29.9971 7.34644 29.9971C5.58894 29.9971 4.36265 28.2871 2.9527 26.1871C1.31953 23.7211 0 19.8901 0 16.2541C0 10.4221 3.5715 7.32912 7.08649 7.32912C8.95418 7.32912 10.5111 8.63112 11.6837 8.63112C12.7998 8.63112 14.5403 7.25112 16.6651 7.25112C17.4704 7.25112 20.3638 7.32912 22.2682 10.2271ZM15.6564 4.78212C16.5351 3.67512 17.1568 2.13912 17.1568 0.603122C17.1568 0.390122 17.1398 0.174122 17.1031 0.00012207C15.6733 0.0571221 13.9724 1.01112 12.9467 2.27412C12.1414 3.24612 11.3898 4.78212 11.3898 6.33912C11.3898 6.57312 11.4265 6.80712 11.4435 6.88212C11.5339 6.90012 11.6808 6.92112 11.8278 6.92112C13.1106 6.92112 14.724 6.00912 15.6564 4.78212Z" fill="black"/>
</svg>
