<svg width="32" height="32" viewBox="0 0 32 32" fill="none" xmlns="http://www.w3.org/2000/svg">
<path d="M16 3.33344C12.6406 3.33344 9.41875 4.66795 7.04329 7.04342C4.66783 9.41888 3.33331 12.6407 3.33331 16.0001C3.33331 19.3595 4.66783 22.5813 7.04329 24.9568C9.41875 27.3322 12.6406 28.6668 16 28.6668C19.3594 28.6668 22.5812 27.3322 24.9567 24.9568C27.3321 22.5813 28.6666 19.3595 28.6666 16.0001C28.6666 12.6407 27.3321 9.41888 24.9567 7.04342C22.5812 4.66795 19.3594 3.33344 16 3.33344V3.33344Z" fill="#039BE5"/>
<path d="M17.7146 19.3575H20.9926L21.5073 16.0275H17.714V14.2075C17.714 12.8241 18.166 11.5975 19.46 11.5975H21.5393V8.69145C21.174 8.64212 20.4013 8.53412 18.9413 8.53412C15.8926 8.53412 14.1053 10.1441 14.1053 13.8121V16.0275H10.9713V19.3575H14.1053V28.5101C14.726 28.6035 15.3546 28.6668 16 28.6668C16.5833 28.6668 17.1526 28.6135 17.7146 28.5375V19.3575Z" fill="white"/>
</svg>
